<svg width="40" height="40" viewBox="0 0 40 40" fill="none" xmlns="http://www.w3.org/2000/svg">
<rect width="40" height="40" rx="20" fill="#A182BF"/>
<path d="M32.7339 22.268H4.86593C4.56518 22.268 4.27674 22.1485 4.06407 21.9359C3.85141 21.7232 3.73193 21.4347 3.73193 21.134V18.866C3.73193 18.5652 3.85141 18.2768 4.06407 18.0641C4.27674 17.8515 4.56518 17.732 4.86593 17.732H32.7339V22.268Z" fill="white"/>
<path d="M21.9261 31.6L20.3261 30C20.2209 29.895 20.1374 29.7703 20.0804 29.6331C20.0235 29.4958 19.9941 29.3486 19.9941 29.2C19.9941 29.0514 20.0235 28.9042 20.0804 28.7669C20.1374 28.6296 20.2209 28.505 20.3261 28.4L28.7261 20L20.3261 11.6C20.1141 11.3877 19.995 11.1 19.995 10.8C19.995 10.5 20.1141 10.2122 20.3261 9.99999L21.9261 8.39999C22.1383 8.18797 22.4261 8.06888 22.7261 8.06888C23.0261 8.06888 23.3138 8.18797 23.5261 8.39999L35.1261 20L23.5261 31.6C23.3138 31.812 23.0261 31.9311 22.7261 31.9311C22.4261 31.9311 22.1383 31.812 21.9261 31.6Z" fill="white"/>
</svg>
