<svg width="16" height="16" viewBox="0 0 16 16" fill="none" xmlns="http://www.w3.org/2000/svg">
<path d="M3.6 10.4C3.70609 10.4 3.80783 10.4421 3.88284 10.5172C3.95786 10.5922 4 10.6939 4 10.8C4 10.9061 3.95786 11.0078 3.88284 11.0828C3.80783 11.1579 3.70609 11.2 3.6 11.2H2C1.46957 11.2 0.960859 10.9893 0.585786 10.6142C0.210714 10.2391 0 9.73043 0 9.2V2C0 1.46957 0.210714 0.960859 0.585786 0.585786C0.960859 0.210714 1.46957 0 2 0L9.2 0C9.73043 0 10.2391 0.210714 10.6142 0.585786C10.9893 0.960859 11.2 1.46957 11.2 2V3.6C11.2 3.70609 11.1579 3.80783 11.0828 3.88284C11.0078 3.95786 10.9061 4 10.8 4C10.6939 4 10.5922 3.95786 10.5172 3.88284C10.4421 3.80783 10.4 3.70609 10.4 3.6V2C10.4 1.68174 10.2736 1.37652 10.0485 1.15147C9.82348 0.926428 9.51826 0.8 9.2 0.8H2C1.68174 0.8 1.37652 0.926428 1.15147 1.15147C0.926428 1.37652 0.8 1.68174 0.8 2V9.2C0.8 9.35759 0.831039 9.51363 0.891345 9.65922C0.95165 9.80481 1.04004 9.9371 1.15147 10.0485C1.2629 10.16 1.39519 10.2484 1.54078 10.3087C1.68637 10.369 1.84241 10.4 2 10.4H3.6ZM6.8 5.6C6.48174 5.6 6.17652 5.72643 5.95147 5.95147C5.72643 6.17652 5.6 6.48174 5.6 6.8V14C5.6 14.3183 5.72643 14.6235 5.95147 14.8485C6.17652 15.0736 6.48174 15.2 6.8 15.2H14C14.3183 15.2 14.6235 15.0736 14.8485 14.8485C15.0736 14.6235 15.2 14.3183 15.2 14V6.8C15.2 6.48174 15.0736 6.17652 14.8485 5.95147C14.6235 5.72643 14.3183 5.6 14 5.6H6.8ZM6.8 4.8H14C14.5304 4.8 15.0391 5.01071 15.4142 5.38579C15.7893 5.76086 16 6.26957 16 6.8V14C16 14.5304 15.7893 15.0391 15.4142 15.4142C15.0391 15.7893 14.5304 16 14 16H6.8C6.26957 16 5.76086 15.7893 5.38579 15.4142C5.01071 15.0391 4.8 14.5304 4.8 14V6.8C4.8 6.26957 5.01071 5.76086 5.38579 5.38579C5.76086 5.01071 6.26957 4.8 6.8 4.8Z" fill="#A182BF"/>
</svg>
