<svg width="16" height="16" viewBox="0 0 16 16" fill="none" xmlns="http://www.w3.org/2000/svg">
<g clip-path="url(#clip0_15_695)">
<path d="M11.3084 5.28334C11.1 5.075 10.7667 5.075 10.5584 5.28334L8.30005 7.55L6.04172 5.29167C5.83338 5.08334 5.50005 5.08334 5.29172 5.29167C5.08338 5.5 5.08338 5.83334 5.29172 6.04167L7.55838 8.3L5.29172 10.5667C5.08338 10.775 5.08338 11.1083 5.29172 11.3167C5.50005 11.525 5.83338 11.525 6.04172 11.3167L8.30005 9.05L10.5584 11.3167C10.7584 11.525 11.0917 11.525 11.3 11.325L11.3084 11.3167C11.5167 11.1083 11.5167 10.775 11.3084 10.575L9.04172 8.3L11.3084 6.03334C11.5167 5.825 11.5167 5.49167 11.3084 5.28334ZM8.30005 0.800003C4.15838 0.800003 0.800049 4.15834 0.800049 8.3C0.800049 12.4417 4.15838 15.8 8.30005 15.8C12.4417 15.8 15.8 12.4417 15.8 8.3C15.8 4.15834 12.4417 0.800003 8.30005 0.800003ZM12.8584 12.8583C11.65 14.0667 10.0084 14.75 8.30005 14.7417C6.59172 14.7417 4.95005 14.0667 3.74172 12.8583C2.53338 11.65 1.85005 10.0083 1.85005 8.3C1.85005 6.59167 2.52505 4.95 3.74172 3.74167C4.95005 2.53334 6.59172 1.85 8.30005 1.85834C10.0084 1.85834 11.65 2.53334 12.8584 3.75C14.0667 4.95834 14.75 6.6 14.7417 8.30834C14.75 10.0083 14.0667 11.65 12.8584 12.8583Z" fill="#D81E06"/>
</g>
<defs>
<clipPath id="clip0_15_695">
<rect width="16" height="16" fill="white"/>
</clipPath>
</defs>
</svg>
