<svg width="16" height="16" viewBox="0 0 16 16" fill="none" xmlns="http://www.w3.org/2000/svg">
<path d="M5.33341 8C5.33341 8.17509 5.29893 8.34847 5.23192 8.51024C5.16491 8.67201 5.0667 8.819 4.94289 8.94281C4.81908 9.06662 4.67209 9.16483 4.51033 9.23184C4.34856 9.29884 4.17518 9.33333 4.00008 9.33333C3.82499 9.33333 3.6516 9.29884 3.48984 9.23184C3.32807 9.16483 3.18108 9.06662 3.05727 8.94281C2.93346 8.819 2.83525 8.67201 2.76824 8.51024C2.70124 8.34847 2.66675 8.17509 2.66675 8C2.66675 7.64638 2.80722 7.30724 3.05727 7.05719C3.30732 6.80714 3.64646 6.66666 4.00008 6.66666C4.3537 6.66666 4.69284 6.80714 4.94289 7.05719C5.19294 7.30724 5.33341 7.64638 5.33341 8ZM9.33341 8C9.33341 8.17509 9.29893 8.34847 9.23192 8.51024C9.16491 8.67201 9.0667 8.819 8.94289 8.94281C8.81908 9.06662 8.67209 9.16483 8.51033 9.23184C8.34856 9.29884 8.17518 9.33333 8.00008 9.33333C7.82499 9.33333 7.6516 9.29884 7.48984 9.23184C7.32807 9.16483 7.18108 9.06662 7.05727 8.94281C6.93346 8.819 6.83525 8.67201 6.76824 8.51024C6.70124 8.34847 6.66675 8.17509 6.66675 8C6.66675 7.64638 6.80722 7.30724 7.05727 7.05719C7.30732 6.80714 7.64646 6.66666 8.00008 6.66666C8.3537 6.66666 8.69284 6.80714 8.94289 7.05719C9.19294 7.30724 9.33341 7.64638 9.33341 8ZM12.0001 9.33333C12.1752 9.33333 12.3486 9.29884 12.5103 9.23184C12.6721 9.16483 12.8191 9.06662 12.9429 8.94281C13.0667 8.819 13.1649 8.67201 13.2319 8.51024C13.2989 8.34847 13.3334 8.17509 13.3334 8C13.3334 7.8249 13.2989 7.65152 13.2319 7.48975C13.1649 7.32799 13.0667 7.181 12.9429 7.05719C12.8191 6.93338 12.6721 6.83516 12.5103 6.76816C12.3486 6.70115 12.1752 6.66666 12.0001 6.66666C11.6465 6.66666 11.3073 6.80714 11.0573 7.05719C10.8072 7.30724 10.6667 7.64638 10.6667 8C10.6667 8.35362 10.8072 8.69276 11.0573 8.94281C11.3073 9.19286 11.6465 9.33333 12.0001 9.33333Z" fill="#B4B3B1"/>
</svg>
