<svg width="28" height="28" viewBox="0 0 28 28" fill="none" xmlns="http://www.w3.org/2000/svg">
<path d="M27.7855 13.9081C27.7855 21.5728 21.5651 27.7874 13.8913 27.7874C6.21825 27.7874 0 21.5727 0 13.9081C0 8.0248 3.66193 2.99845 8.83359 0.978473C10.3962 0.348116 12.1033 0 13.8917 0C15.6822 0 17.3879 0.347764 18.952 0.978473C24.1233 2.99845 27.7855 8.02483 27.7855 13.9081ZM8.55174 10.981C8.55174 13.32 9.75016 15.345 11.4923 16.3363C12.2148 16.7474 13.0283 16.9845 13.8913 16.9845C14.7241 16.9845 15.5092 16.7627 16.2128 16.3796C17.9961 15.4073 19.2331 13.3575 19.2331 10.9814C19.2331 7.67304 16.8374 4.98014 13.8913 4.98014C10.9471 4.97979 8.55174 7.67272 8.55174 10.981ZM13.9478 26.8879C18.0066 26.8879 21.6274 25.0213 24.0005 22.1001C23.7202 19.7957 21.4748 17.8341 18.2968 16.8555C17.0966 17.9353 15.5631 18.5849 13.8909 18.5849C12.1816 18.5849 10.6169 17.9003 9.40495 16.7736C6.31364 17.6559 4.04935 19.4556 3.51845 21.6121C5.87339 24.8112 9.66896 26.8879 13.9478 26.8879Z" fill="#A182BF"/>
</svg>
