<svg width="16" height="16" viewBox="0 0 16 16" fill="none" xmlns="http://www.w3.org/2000/svg">
<path d="M3.41241 1.44691C2.66867 1.96722 2.02336 2.60784 1.49367 3.35003C0.429616 4.83908 -0.0953809 6.66095 0.015556 8.47812C0.0389933 8.87031 0.376491 9.16874 0.768677 9.14531C1.16086 9.12187 1.4593 8.78437 1.43586 8.39219C1.2468 5.28127 3.29835 2.44378 6.31552 1.64379C8.62801 1.03129 11.0608 1.72035 12.7045 3.40471L11.5952 4.00159L15.0436 6.13282L15.167 2.08128L13.9999 2.7094C13.0874 1.67504 11.9249 0.895352 10.6124 0.439105C9.10769 -0.0812048 7.49676 -0.14058 5.95146 0.268793C5.03584 0.510979 4.18116 0.907852 3.41241 1.44691ZM0.832739 13.9187L1.99992 13.2922C2.91241 14.3265 4.07491 15.1062 5.3874 15.5609C6.89208 16.0812 8.50301 16.1406 10.0483 15.7312C10.6499 15.5718 11.2249 15.3468 11.7671 15.0578C12.0499 14.9078 12.3233 14.739 12.5874 14.5547C13.3311 14.0343 13.9749 13.3953 14.5045 12.6547C15.5686 11.1672 16.0952 9.34687 15.9858 7.53125C15.9623 7.13907 15.6248 6.84063 15.2327 6.86407C14.8405 6.88751 14.542 7.225 14.5655 7.61719C14.7498 10.7219 12.6967 13.5562 9.68425 14.3562C7.37176 14.9687 4.93897 14.2797 3.29523 12.5953L4.40459 11.9984L0.956176 9.86718L0.832739 13.9187Z" fill="#A182BF"/>
</svg>
