<svg width="6" height="12" viewBox="0 0 6 12" fill="none" xmlns="http://www.w3.org/2000/svg">
<path d="M0.195289 0.862006C0.313259 0.744023 0.47118 0.674563 0.637867 0.667343C0.804555 0.660122 0.967892 0.715666 1.09562 0.823006L1.13796 0.862006L5.80462 5.52867C5.9226 5.64664 5.99206 5.80456 5.99928 5.97125C6.00651 6.13794 5.95096 6.30128 5.84362 6.42901L5.80462 6.47134L1.13796 11.138C1.01641 11.2593 0.852765 11.3289 0.681119 11.3325C0.509473 11.3361 0.343055 11.2734 0.216528 11.1573C0.0900008 11.0413 0.0131198 10.8809 0.00189824 10.7096C-0.0093233 10.5383 0.0459798 10.3692 0.156289 10.2377L0.195289 10.1953L4.38996 6.00001L0.195289 1.80467C0.0773057 1.6867 0.00784554 1.52878 0.000625086 1.36209C-0.00659537 1.19541 0.0489487 1.03207 0.156289 0.904339L0.195289 0.862006Z" fill="#A5A4A1"/>
</svg>
