<?xml version="1.0" standalone="no"?><!DOCTYPE svg PUBLIC "-//W3C//DTD SVG 1.1//EN" "http://www.w3.org/Graphics/SVG/1.1/DTD/svg11.dtd">
<svg t="1671269837946" class="icon" viewBox="0 0 1024 1024" version="1.1" xmlns="http://www.w3.org/2000/svg" p-id="3915"
     width="200" height="200"><path d="M959.443256 696.557544l-91.843616-116.826717c-5.324268-6.757724-7.679232-15.256074-6.655334-23.754425 3.993201-29.078692 3.993201-58.566943 0-87.748025-1.023898-8.49835 1.331067-16.9967 6.655334-23.754424l90.922108-115.598041c0.307169-0.511949 0.716728-0.921508 1.023897-1.331066l-63.9936-110.785722h-0.20478l-147.543645 21.29707c-8.49835 1.228677-17.09909-1.023898-23.856815-6.143385-23.242476-17.815818-48.635136-32.662334-75.563643-44.232377-7.884012-3.378862-14.129787-9.727027-17.30387-17.713429L576.607939 33.788621c-0.20478-0.511949-0.511949-1.023898-0.716728-1.535846h-127.987201l-0.10239 0.204779L392.920708 169.967003c-3.174083 7.986401-9.419858 14.334567-17.30387 17.611039-27.030897 11.467653-52.628337 26.314169-75.973202 44.232377-6.860114 5.119488-15.460854 7.372063-23.856815 6.143386L130.086191 216.963904c-0.614339 0-1.126287-0.10239-1.740626-0.20478L64.351965 327.647235l0.10239 0.10239 92.048395 116.929107c5.324268 6.757724 7.679232 15.256074 6.552944 23.754425-4.09559 28.976302-4.09559 58.464554 0 87.440856 1.023898 8.49835-1.331067 16.9967-6.552944 23.754424l-91.024498 115.70043c-0.307169 0.511949-0.716728 0.921508-1.023897 1.331067l63.9936 110.888111h0.20478L275.684432 786.353365c8.49835-1.228677 17.09909 1.023898 23.856814 6.143385 23.344866 17.815818 48.942306 32.662334 75.973203 44.232377 7.884012 3.276472 14.129787 9.624638 17.303869 17.611039l54.471353 136.178382c0.20478 0.511949 0.511949 1.023898 0.716728 1.535847h127.987202l0.102389-0.20478 55.085692-137.611839c3.174083-7.986401 9.419858-14.334567 17.303869-17.611039 26.928507-11.467653 52.321168-26.314169 75.563644-44.129987 6.860114-5.119488 15.460854-7.372063 23.856814-6.143385L893.913809 807.343266c0.511949 0 1.126287 0.10239 1.740626 0.204779l63.9936-110.785721-0.204779-0.20478z m-447.443256-104.437556c-44.129987 0-79.966403-35.836416-79.966403-79.966403s35.836416-79.966403 79.966403-79.966404 79.966403 35.836416 79.966403 79.966404c0 44.129987-35.836416 79.966403-79.966403 79.966403z" fill="#F0EEE2" p-id="3916"></path><path d="M512 320.172783c-105.973403 0-191.980802 86.007399-191.980802 191.980802s86.007399 191.980802 191.980802 191.980802 191.980802-86.007399 191.980802-191.980802-86.007399-191.980802-191.980802-191.980802z m0 271.947205c-44.129987 0-79.966403-35.836416-79.966403-79.966403s35.836416-79.966403 79.966403-79.966404 79.966403 35.836416 79.966403 79.966404c0 44.129987-35.836416 79.966403-79.966403 79.966403z" fill="#BBAA9C" p-id="3917"></path><path d="M783.947205 400.139186c0-8.805519-7.167283-15.972803-15.972802-15.972803H655.960004c-8.805519 0-15.972803 7.167283-15.972803 15.972803s7.167283 15.972803 15.972803 15.972803H767.974403c8.805519 0.10239 15.972803-7.064894 15.972802-15.972803zM512 240.206379h31.945605c8.805519-0.20478 15.768023-7.576842 15.563244-16.382361-0.20478-8.49835-7.064894-15.358464-15.563244-15.563244H512c-8.805519 0.20478-15.768023 7.576842-15.563244 16.382362 0.20478 8.49835 7.064894 15.358464 15.563244 15.563243zM384.012799 544.20158h-31.945606c-8.805519 0-15.972803 7.167283-15.972802 15.972803s7.167283 15.972803 15.972802 15.972802H384.012799c8.805519 0 15.972803-7.167283 15.972802-15.972802s-7.167283-15.972803-15.972802-15.972803zM224.079992 368.193581c0-8.805519-7.167283-15.972803-15.972803-15.972803h-96.041596c-8.805519 0.20478-15.768023 7.576842-15.563243 16.382362 0.20478 8.49835 7.064894 15.358464 15.563243 15.563243h95.939207c8.805519 0 15.972803-7.167283 16.075192-15.972802z m255.974403 383.961603h-48.020798c-8.805519 0-15.972803 7.167283-15.972803 15.972803s7.167283 15.972803 15.972803 15.972803h48.020798c8.805519 0 15.972803-7.167283 15.972802-15.972803s-7.167283-15.972803-15.972802-15.972803z m127.987201 111.912009H512c-8.805519 0.20478-15.768023 7.576842-15.563244 16.382362 0.20478 8.49835 7.064894 15.358464 15.563244 15.563244h96.041596c8.805519-0.20478 15.768023-7.576842 15.563244-16.382362-0.20478-8.49835-7.064894-15.256074-15.563244-15.563244z m207.953604-191.980802h-32.047995c-8.805519 0-15.972803 7.167283-15.972802 15.972803s7.167283 15.972803 15.972802 15.972803h31.945606c8.805519 0 15.972803-7.167283 15.972802-15.972803s-7.064894-15.972803-15.870413-15.972803z m-591.915208 0h-15.972803c-8.805519 0-15.972803 7.167283-15.972802 15.972803s7.167283 15.972803 15.972802 15.972803h15.972803c8.805519 0 15.972803-7.167283 15.972803-15.972803s-7.167283-15.972803-15.972803-15.972803z" fill="#D8D5BA" p-id="3918"></path><path d="M512 320.172783c-105.973403 0-191.980802 86.007399-191.980802 191.980802s86.007399 191.980802 191.980802 191.980802 191.980802-86.007399 191.980802-191.980802-86.007399-191.980802-191.980802-191.980802z m0 352.015998c-88.362364 0-159.932807-71.672833-159.932807-159.932807S423.637636 352.220778 512 352.220778s159.932807 71.672833 159.932807 159.932807S600.362364 672.188781 512 672.188781z m0-255.974402c-53.037896 0-96.041596 43.0037-96.041596 96.041595s43.0037 96.041596 96.041596 96.041596 96.041596-43.0037 96.041596-96.041596-43.0037-96.041596-96.041596-96.041595z m0 159.932806c-35.324468 0-63.993601-28.669133-63.993601-63.9936s28.669133-63.993601 63.993601-63.993601 63.993601 28.669133 63.993601 63.993601-28.669133 63.993601-63.993601 63.9936z m472.835916 100.546746l-92.048395-116.929107c4.30037-31.740826 4.30037-63.891211 0-95.632037L984.835916 347.10129c8.088791-10.238976 9.112689-24.471153 2.559744-35.734027l-63.9936-110.785721c-5.733827-9.931807-16.279972-15.972803-27.747625-15.972803-1.535846 0-3.071693 0.10239-4.60754 0.307169L743.40086 206.212979c-25.392661-19.454055-53.037896-35.734027-82.526147-48.225578L605.686631 20.068393C600.874313 7.986401 589.09949 0 575.993601 0h-127.987202c-13.105889 0-24.880712 7.986401-29.69303 20.170783l-55.085692 137.816618c-29.590641 12.491551-57.440656 28.669133-82.935706 48.225578l-147.338866-21.297071c-12.90111-1.843016-25.69983 4.30037-32.252775 15.665634L36.60434 311.367263c-6.552945 11.365263-5.529047 25.49505 2.559744 35.734027l92.150785 117.133886c-2.150185 15.870413-3.276472 31.740826-3.378863 47.713629 0.10239 15.972803 1.228677 31.843216 3.276473 47.713629L39.061694 676.79632c-8.088791 10.238976-9.112689 24.471153-2.559744 35.734027l63.9936 110.785721c6.552945 11.262874 19.351665 17.508649 32.252775 15.665634l147.338866-21.194681c25.49505 19.454055 53.345065 35.631637 82.935707 48.225578l55.085691 137.816618c4.812319 12.184382 16.587141 20.170783 29.693031 20.170783h127.987201c13.105889 0 24.880712-7.986401 29.693031-20.170783l55.085691-137.816618c29.385861-12.593941 57.133487-28.771523 82.526148-48.225578L890.842116 839.084092c12.90111 1.843016 25.69983-4.30037 32.252775-15.665634L987.088491 712.632737c6.757724-11.467653 5.733827-25.59744-2.252575-35.938806z m-106.075792 95.836816l-126.348965-18.225378c-16.9967-2.457354-34.19818 2.047795-47.816019 12.389162-21.092291 16.177582-44.129987 29.693031-68.601139 40.239176-15.768023 6.655334-28.259574 19.351665-34.60774 35.222077l-47.09929 117.748226h-84.676332l-47.09929-117.748226c-6.348165-15.870413-18.839716-28.566743-34.607739-35.222077-24.573543-10.443756-47.816018-23.959204-69.010699-40.136787-13.617838-10.341366-30.819318-14.846515-47.816019-12.389161l-125.939406 18.122988-42.286971-73.311069 78.737726-100.034796c10.546145-13.413059 15.358464-30.512149 13.208279-47.50885-1.740626-13.208279-2.662134-26.416558-2.764523-39.727227 0.10239-13.310669 1.023898-26.621338 2.866913-39.727227 2.150185-16.9967-2.662134-34.09579-13.208279-47.508849l-78.840116-100.137187 42.286971-73.311068 125.939406 18.122987c16.9967 2.457354 34.19818-2.047795 47.816019-12.389161 21.194681-16.177582 44.437156-29.693031 69.010699-40.136786 15.768023-6.655334 28.259574-19.351665 34.607739-35.222078l47.09929-117.748225h84.676332l47.09929 117.748225c6.348165 15.870413 18.839716 28.566743 34.60774 35.222078 24.471153 10.443756 47.508849 23.959204 68.601139 40.239176 13.617838 10.341366 30.819318 14.846515 47.816019 12.389161l126.348965-18.225377 42.286971 73.311068-78.635336 99.932407c-10.546145 13.413059-15.358464 30.512149-13.208279 47.508849 3.583642 26.518948 3.583642 53.345065 0 79.761624-2.150185 16.9967 2.662134 34.09579 13.208279 47.508849l78.635336 99.932407-42.286971 73.311069z" fill="#5F4E56" p-id="3919"></path></svg>
