<?xml version="1.0" standalone="no"?><!DOCTYPE svg PUBLIC "-//W3C//DTD SVG 1.1//EN" "http://www.w3.org/Graphics/SVG/1.1/DTD/svg11.dtd">
<svg t="1685081607443" class="icon" viewBox="0 0 1024 1024" version="1.1" xmlns="http://www.w3.org/2000/svg"
     p-id="23889"
     width="128" height="128"><path d="M42.666667 512C42.666667 251.733333 251.733333 42.666667 512 42.666667s469.333333 209.066667 469.333333 469.333333-209.066667 469.333333-469.333333 469.333333S42.666667 772.266667 42.666667 512z m76.8 0c0 217.6 174.933333 392.533333 392.533333 392.533333s392.533333-174.933333 392.533333-392.533333-174.933333-392.533333-392.533333-392.533333S119.466667 294.4 119.466667 512z m243.2 170.666667c-12.8 0-21.333333-8.533333-21.333334-21.333334v-298.666666c0-12.8 8.533333-21.333333 21.333334-21.333334h298.666666c12.8 0 21.333333 8.533333 21.333334 21.333334v298.666666c0 12.8-8.533333 21.333333-21.333334 21.333334h-298.666666z" p-id="23890" fill="#a182bf"></path></svg>
