<svg width="16" height="16" viewBox="0 0 16 16" fill="none" xmlns="http://www.w3.org/2000/svg">
<g clip-path="url(#clip0_15_689)">
<path d="M6.79998 10.7C6.69998 10.7 6.59998 10.7 6.49998 10.6L4.19998 8.4C3.99998 8.2 3.89998 7.9 4.09998 7.7C4.29998 7.5 4.59998 7.5 4.79998 7.7L7.09998 9.9C7.29998 10.1 7.29998 10.4 7.09998 10.6C7.09998 10.7 6.99998 10.7 6.79998 10.7Z" fill="#0FCC1C"/>
<path d="M6.8 10.7C6.7 10.7 6.5 10.6 6.4 10.5C6.2 10.3 6.2 10 6.4 9.8L11.1 5.4C11.3 5.2 11.6 5.2 11.8 5.4C12 5.6 12 5.9 11.8 6.1L7.1 10.5C7.1 10.7 7 10.7 6.8 10.7Z" fill="#0FCC1C"/>
<path d="M8 16C3.6 16 0 12.4 0 8C0 3.6 3.6 0 8 0C12.4 0 16 3.6 16 8C16 12.4 12.4 16 8 16ZM8 1C4.1 1 1 4.1 1 8C1 11.9 4.1 15 8 15C11.9 15 15 11.9 15 8C15 4.1 11.9 1 8 1Z" fill="#0FCC1C"/>
</g>
<defs>
<clipPath id="clip0_15_689">
<rect width="16" height="16" fill="white"/>
</clipPath>
</defs>
</svg>
